<svg xmlns="http://www.w3.org/2000/svg" width="180" height="180" viewBox="0 0 100 100">
  <defs>
    <linearGradient id="goldGrad" x1="0%" y1="0%" x2="100%" y2="100%">
      <stop offset="0%" style="stop-color:#c9a227;stop-opacity:1" />
      <stop offset="100%" style="stop-color:#8b6914;stop-opacity:1" />
    </linearGradient>
  </defs>
  <!-- Background -->
  <rect width="100" height="100" rx="20" fill="#1a1a2e"/>
  <!-- Stylized "D" for DYERB -->
  <path d="M30 20 L30 80 L55 80 Q75 80 75 50 Q75 20 55 20 Z M40 32 L52 32 Q60 32 60 50 Q60 68 52 68 L40 68 Z" fill="url(#goldGrad)"/>
  <!-- Accent flame/rift element -->
  <path d="M65 35 Q72 25 70 40 Q78 30 75 45 Q82 38 78 50 Q75 60 70 55 Q68 50 65 55 Q60 45 65 35" fill="#c9a227" opacity="0.8"/>
</svg>
